<?xml version="1.0" encoding="utf-8"?>
<!-- Generator: Adobe Illustrator 17.0.0, SVG Export Plug-In . SVG Version: 6.00 Build 0)  -->
<!DOCTYPE svg PUBLIC "-//W3C//DTD SVG 1.1//EN" "http://www.w3.org/Graphics/SVG/1.1/DTD/svg11.dtd">
<svg version="1.1" id="Capa_1" xmlns="http://www.w3.org/2000/svg" xmlns:xlink="http://www.w3.org/1999/xlink" x="0px" y="0px"
	 width="95.499px" height="32.671px" viewBox="0 0 95.499 32.671" enable-background="new 0 0 95.499 32.671" xml:space="preserve">
<path fill="#050306" d="M94.437,17.124c0.679-0.685,1.062-1.615,1.062-2.579V6.041C95.499,2.705,92.807,0,89.483,0H6.016
	C2.692,0,0,2.705,0,6.044V26.63c0,3.336,2.692,6.041,6.016,6.041h71.435c0.962,0,1.888-0.387,2.567-1.068L94.437,17.124z"/>
<path fill-rule="evenodd" clip-rule="evenodd" fill="#FFFFFF" d="M8.256,26.083v-8.519c0-1.496,0.145-2.639,0.446-3.434
	c0.302-0.795,0.785-1.395,1.448-1.806c0.666-0.415,1.389-0.622,2.177-0.622c1.028,0,1.772,0.314,2.228,0.93
	c0.452,0.615,0.681,1.545,0.681,2.78v10.671h2.991v-9.544c0-1.687,0.38-2.915,1.146-3.684c0.77-0.767,1.731-1.153,2.894-1.153
	c0.644,0,1.2,0.15,1.677,0.449c0.478,0.301,0.808,0.694,0.987,1.184c0.182,0.493,0.276,1.291,0.276,2.4v10.348h2.991v-11.45
	c0-1.904-0.453-3.315-1.354-4.235c-0.905-0.914-2.193-1.373-3.864-1.373c-2.146,0-3.886,1.049-5.221,3.142
	c-0.318-0.99-0.855-1.756-1.624-2.313c-0.77-0.552-1.756-0.829-2.963-0.829c-1.077,0-2.045,0.27-2.887,0.811
	c-0.845,0.537-1.52,1.247-2.029,2.126V9.358H5.265v16.725H8.256z"/>
<path fill-rule="evenodd" clip-rule="evenodd" fill="#FFFFFF" d="M38.746,18.93c0,1.056-0.135,1.847-0.405,2.387
	c-0.352,0.701-0.908,1.276-1.662,1.735c-0.751,0.461-1.608,0.691-2.576,0.691c-0.974,0-1.718-0.214-2.227-0.654
	c-0.509-0.44-0.757-0.983-0.757-1.643c0-0.427,0.113-0.813,0.349-1.168c0.232-0.352,0.565-0.619,0.989-0.801
	c0.427-0.176,1.159-0.346,2.199-0.49c1.822-0.252,3.192-0.566,4.106-0.93L38.746,18.93z M40.094,26.083h2.991
	c-0.399-0.732-0.666-1.498-0.801-2.306c-0.136-0.798-0.198-2.45-0.198-4.954v-3.59c0-1.197-0.044-2.039-0.139-2.52
	c-0.166-0.773-0.452-1.41-0.857-1.922c-0.412-0.506-1.049-0.93-1.916-1.263c-0.867-0.336-1.995-0.503-3.381-0.503
	c-1.404,0-2.635,0.192-3.694,0.575c-1.059,0.386-1.869,0.93-2.431,1.64c-0.56,0.713-0.965,1.646-1.21,2.802l2.994,0.333
	c0.264-0.993,0.672-1.687,1.225-2.083c0.55-0.392,1.411-0.59,2.576-0.59c1.241,0,2.174,0.286,2.809,0.851
	c0.468,0.424,0.7,1.143,0.7,2.168c0,0.094-0.003,0.314-0.016,0.659c-0.986,0.38-2.522,0.71-4.611,0.984
	c-1.027,0.135-1.791,0.276-2.3,0.42c-0.691,0.217-1.313,0.528-1.866,0.937c-0.549,0.414-0.996,0.958-1.335,1.636
	c-0.342,0.679-0.509,1.433-0.509,2.253c0,1.404,0.453,2.56,1.357,3.458c0.905,0.899,2.196,1.351,3.886,1.351
	c1.018,0,1.967-0.179,2.862-0.531c0.886-0.348,1.841-0.955,2.865-1.812C39.24,24.845,39.573,25.514,40.094,26.083"/>
<path fill-rule="evenodd" clip-rule="evenodd" fill="#FFFFFF" d="M53.3,18.93c0,1.056-0.135,1.847-0.405,2.387
	c-0.352,0.701-0.908,1.276-1.662,1.735c-0.754,0.461-1.608,0.691-2.576,0.691c-0.977,0-1.718-0.214-2.227-0.654
	s-0.76-0.983-0.76-1.643c0-0.427,0.116-0.813,0.349-1.168c0.235-0.352,0.565-0.619,0.992-0.801c0.428-0.176,1.16-0.346,2.196-0.49
	c1.825-0.252,3.195-0.566,4.109-0.93L53.3,18.93z M54.645,26.083h2.994c-0.402-0.732-0.666-1.498-0.801-2.306
	c-0.135-0.798-0.198-2.45-0.198-4.954v-3.59c0-1.197-0.047-2.039-0.142-2.52c-0.163-0.773-0.449-1.41-0.854-1.922
	c-0.412-0.506-1.049-0.93-1.916-1.263c-0.867-0.336-1.995-0.503-3.384-0.503c-1.401,0-2.632,0.192-3.691,0.575
	c-1.058,0.386-1.869,0.93-2.431,1.64c-0.559,0.713-0.965,1.646-1.21,2.802l2.991,0.333c0.267-0.993,0.675-1.687,1.225-2.083
	c0.553-0.392,1.414-0.59,2.576-0.59c1.244,0,2.177,0.286,2.812,0.851c0.468,0.424,0.7,1.143,0.7,2.168
	c0,0.094-0.006,0.314-0.016,0.659c-0.986,0.38-2.522,0.71-4.611,0.984c-1.027,0.135-1.791,0.276-2.3,0.42
	c-0.691,0.217-1.316,0.528-1.866,0.937c-0.549,0.414-0.995,0.958-1.335,1.636c-0.342,0.679-0.509,1.433-0.509,2.253
	c0,1.404,0.453,2.56,1.357,3.458c0.902,0.899,2.196,1.351,3.883,1.351c1.018,0,1.97-0.179,2.862-0.531
	c0.889-0.348,1.844-0.955,2.868-1.812C53.794,24.845,54.127,25.514,54.645,26.083"/>
<path fill-rule="evenodd" clip-rule="evenodd" fill="#FFFFFF" d="M63.887,22.844c-0.701,0.6-1.574,0.898-2.614,0.898
	c-1.297,0-2.353-0.477-3.157-1.432c-0.81-0.958-1.209-2.494-1.209-4.605c0-2.08,0.408-3.6,1.234-4.562
	c0.82-0.961,1.898-1.442,3.22-1.442c0.874,0,1.615,0.255,2.234,0.758c0.612,0.502,1.043,1.253,1.288,2.252l2.99-0.336
	c-0.32-1.709-1.043-3.025-2.17-3.955c-1.125-0.93-2.576-1.395-4.345-1.395c-1.407,0-2.708,0.339-3.901,1.015
	c-1.194,0.672-2.09,1.68-2.671,3.031c-0.581,1.348-0.873,2.915-0.873,4.712c0,2.78,0.682,4.92,2.048,6.402
	c1.36,1.489,3.167,2.234,5.416,2.234c1.794,0,3.305-0.531,4.533-1.596c1.231-1.065,1.995-2.538,2.296-4.426l-2.99-0.333
	C65.027,21.317,64.581,22.241,63.887,22.844"/>
<path fill-rule="evenodd" clip-rule="evenodd" fill="#FFFFFF" d="M70.795,26.083v-8.978c0-1.285,0.135-2.293,0.415-3.025
	c0.276-0.732,0.738-1.307,1.385-1.737c0.65-0.428,1.348-0.641,2.083-0.641c0.989,0,1.746,0.317,2.287,0.948
	c0.54,0.638,0.81,1.65,0.81,3.038v10.395h2.991V15.509c0-1.63-0.182-2.877-0.547-3.735c-0.361-0.858-0.97-1.527-1.812-2.017
	c-0.845-0.487-1.841-0.732-2.985-0.732c-1.866,0-3.408,0.842-4.627,2.52V3.003h-2.991v23.08H70.795z"/>
<path fill-rule="evenodd" clip-rule="evenodd" fill="#FFFFFF" d="M85.348,9.359h-2.994v16.725h2.994V9.359z M85.348,3.004h-2.994
	v3.013h2.994V3.004z"/>
<path fill="#030104" d="M79.197,30.782l14.419-14.479c-0.911,0.566-1.979,0.694-3.05,0.694h-4.659c-3.324,0-6.016,2.705-6.016,6.041
	v4.681C79.891,28.828,79.762,29.868,79.197,30.782"/>
<g>
	<defs>
		<path id="SVGID_1_" d="M91.462,17.993h-4.658c-3.324,0-6.016,2.704-6.016,6.04v4.681c0,1.109-0.129,2.148-0.695,3.063
			l14.419-14.478C93.601,17.864,92.533,17.993,91.462,17.993"/>
	</defs>
	<clipPath id="SVGID_2_">
		<use xlink:href="#SVGID_1_"  overflow="visible"/>
	</clipPath>
	
		<linearGradient id="SVGID_3_" gradientUnits="userSpaceOnUse" x1="-285.9456" y1="421.4807" x2="-284.9456" y2="421.4807" gradientTransform="matrix(-7.7992 -8.6339 -8.6339 7.7992 1495.6921 -5732.0659)">
		<stop  offset="0" style="stop-color:#6F7173"/>
		<stop  offset="0.0542" style="stop-color:#8B888A"/>
		<stop  offset="0.1338" style="stop-color:#B3B0B1"/>
		<stop  offset="0.2098" style="stop-color:#D5D4D5"/>
		<stop  offset="0.2802" style="stop-color:#EEEEEE"/>
		<stop  offset="0.343" style="stop-color:#FCFCFC"/>
		<stop  offset="0.3917" style="stop-color:#FFFFFF"/>
		<stop  offset="1" style="stop-color:#FFFFFF"/>
	</linearGradient>
	<polygon clip-path="url(#SVGID_2_)" fill="url(#SVGID_3_)" points="86.572,38.949 72.892,23.804 88.034,10.126 101.714,25.271 	"/>
</g>
</svg>
